<?xml version="1.0" standalone="no"?>
<!DOCTYPE svg PUBLIC "-//W3C//DTD SVG 20010904//EN"
 "http://www.w3.org/TR/2001/REC-SVG-20010904/DTD/svg10.dtd">
<svg version="1.0" xmlns="http://www.w3.org/2000/svg"
 width="797.000000pt" height="659.000000pt" viewBox="0 0 797.000000 659.000000"
 preserveAspectRatio="xMidYMid meet">

<g transform="translate(0.000000,659.000000) scale(0.100000,-0.100000)"
stroke="none">
<path d="M83 6573 l-83 -4 0 -3284 0 -3285 3975 0 3975 0 0 3290 0 3290 -3892
-2 c-2141 -1 -3930 -4 -3975 -5z m4822 -830 c31 -154 84 -333 139 -475 75
-192 111 -266 238 -479 l45 -76 -119 -94 c-65 -52 -122 -95 -126 -97 -10 -3
-120 174 -171 276 -60 120 -123 277 -171 430 l-42 133 -37 -28 c-20 -14 -105
-80 -189 -145 l-152 -119 -60 41 c-32 22 -148 95 -257 161 -109 67 -217 135
-240 150 -23 16 -47 29 -54 29 -14 0 -378 -271 -379 -281 0 -11 132 -94 349
-218 236 -136 368 -203 448 -228 31 -10 53 -22 53 -31 0 -28 113 -300 169
-407 57 -110 153 -267 190 -315 l20 -25 33 31 c51 48 282 227 608 471 162 122
327 247 367 278 l72 57 233 -143 c128 -78 314 -192 413 -254 99 -62 317 -197
485 -300 374 -230 411 -255 478 -322 124 -124 148 -313 54 -436 -28 -37 -187
-175 -532 -464 -734 -614 -1030 -866 -1030 -878 1 -5 11 -51 23 -101 l22 -91
115 99 115 99 6 -73 c4 -40 7 -112 8 -160 l1 -87 -272 -225 c-149 -124 -273
-224 -275 -223 -1 2 6 35 17 73 68 237 44 473 -71 681 l-42 76 30 26 c16 14
95 82 174 151 143 124 347 298 569 484 63 53 196 165 295 249 99 83 279 234
400 335 121 101 220 189 220 197 0 18 -93 125 -108 125 -7 -1 -49 -31 -94 -68
-254 -209 -425 -351 -563 -467 -85 -72 -189 -158 -231 -192 -41 -34 -135 -113
-207 -177 l-132 -116 -113 73 c-61 41 -184 121 -272 179 -204 132 -360 246
-500 363 -131 110 -371 354 -477 486 -160 199 -312 457 -394 672 -20 50 -38
94 -40 96 -2 3 -14 -5 -27 -16 -12 -11 -98 -78 -192 -149 -93 -70 -298 -225
-455 -343 -157 -118 -375 -283 -485 -366 -110 -83 -246 -186 -303 -230 l-103
-79 23 -18 c13 -10 102 -66 198 -125 96 -59 279 -172 405 -251 127 -80 263
-165 303 -190 59 -37 70 -48 60 -59 -16 -20 -216 -173 -225 -173 -5 0 -26 12
-48 27 -22 15 -143 93 -270 173 -126 81 -311 198 -410 262 -99 63 -200 126
-225 140 l-45 26 -75 -60 c-41 -34 -75 -65 -75 -70 0 -8 273 -186 578 -377 56
-36 215 -137 352 -225 138 -88 300 -190 360 -226 96 -59 230 -143 720 -453
258 -163 344 -231 431 -335 71 -85 137 -222 165 -337 27 -117 23 -294 -10
-396 -76 -238 -300 -370 -555 -326 -147 26 -158 32 -876 497 -510 331 -767
498 -1045 680 -132 86 -285 186 -340 222 -446 289 -1032 687 -1086 737 -37 33
-74 76 -83 95 -37 78 -9 173 61 202 47 20 68 14 133 -42 30 -26 80 -65 110
-88 44 -32 976 -655 1422 -950 l87 -57 63 52 c35 28 64 55 66 60 2 4 -70 56
-160 115 -90 59 -266 176 -393 259 -445 294 -789 573 -1109 899 -235 240 -295
317 -296 381 0 80 57 155 120 155 42 0 41 1 298 -275 333 -359 703 -661 1202
-980 102 -65 239 -153 305 -195 66 -43 194 -124 285 -180 91 -57 359 -225 595
-375 237 -149 470 -295 518 -325 204 -127 289 -282 228 -415 -32 -69 -62 -89
-142 -93 -38 -3 -90 1 -115 7 -26 7 -48 10 -50 8 -8 -8 100 -76 146 -93 67
-25 175 -23 226 4 163 84 186 326 52 534 -54 83 -149 175 -227 218 -111 62
-261 154 -481 295 -118 76 -267 170 -330 210 -816 510 -1197 756 -1360 878
-234 176 -530 488 -686 724 -61 92 -139 243 -148 288 -7 33 -28 15 538 450 92
72 283 220 425 330 620 482 1706 1315 1716 1315 6 0 490 -303 569 -356 l50
-33 35 26 c20 15 74 57 121 93 251 197 392 302 397 297 2 -3 15 -58 28 -124z
m1244 -259 c49 -107 112 -159 246 -205 29 -10 44 -19 35 -22 -115 -39 -147
-55 -195 -99 -50 -45 -115 -150 -115 -185 0 -7 -4 -13 -10 -13 -5 0 -10 7 -10
15 0 23 -55 127 -85 164 -35 41 -103 81 -184 107 l-64 21 48 12 c114 29 217
106 260 196 14 30 25 61 25 69 0 33 16 13 49 -60z m-2705 -1726 c11 -67 72
-171 137 -233 62 -59 161 -112 256 -136 l53 -13 -74 -21 c-195 -56 -310 -168
-361 -350 -9 -33 -19 -67 -22 -75 -2 -8 -15 19 -27 60 -58 198 -178 314 -379
367 l-65 17 81 24 c111 32 171 66 242 137 61 62 105 137 127 221 7 24 15 44
19 44 3 0 9 -19 13 -42z m1129 -486 c23 -24 69 -57 101 -74 l59 -30 -63 -34
c-35 -19 -77 -46 -92 -61 -26 -24 -65 -95 -82 -147 -5 -14 -15 -1 -42 53 -41
82 -93 130 -180 165 -48 20 -55 26 -39 31 118 40 199 107 231 192 l17 44 24
-48 c14 -26 43 -68 66 -91z m2743 -315 c31 -28 37 -42 41 -84 8 -79 -19 -125
-130 -220 -80 -69 -487 -407 -616 -512 -25 -20 -99 -81 -165 -136 -67 -55
-129 -106 -139 -114 -16 -13 -17 -4 -17 155 l0 169 98 82 c363 305 592 497
686 576 59 51 118 97 130 104 38 22 74 15 112 -20z m-3266 -138 c21 -25 57
-51 106 -76 l75 -37 -47 -17 c-97 -37 -169 -111 -196 -201 -6 -21 -14 -38 -17
-38 -4 0 -12 19 -19 43 -27 92 -125 180 -232 210 -23 7 -22 9 25 30 116 52
169 99 206 182 l22 49 23 -53 c13 -29 37 -70 54 -92z m821 -87 c53 -114 143
-187 284 -228 l60 -17 -48 -13 c-161 -41 -272 -150 -327 -318 l-12 -39 -29 74
c-55 140 -149 230 -286 272 -40 12 -73 24 -73 27 0 3 24 11 53 18 83 19 170
67 221 122 45 48 105 159 107 197 0 13 3 11 11 -7 5 -14 23 -53 39 -88z m-850
-472 c68 -43 171 -110 229 -147 335 -214 479 -315 538 -375 l63 -64 -52 -45
c-29 -24 -82 -67 -118 -96 l-65 -52 -85 82 c-92 88 -203 167 -476 335 -282
174 -398 253 -389 262 20 20 219 179 225 179 3 1 62 -35 130 -79z m1190 -587
c11 -27 30 -86 41 -133 39 -163 10 -421 -61 -536 -16 -26 -252 -234 -266 -234
-2 0 7 24 21 53 13 30 33 98 45 153 30 142 23 353 -14 469 l-26 80 46 40 c57
49 187 154 191 155 1 0 12 -21 23 -47z"/>
<path d="M2874 4812 c-100 -75 -258 -195 -350 -266 -93 -71 -204 -156 -247
-189 -44 -32 -75 -62 -70 -67 4 -4 91 -58 193 -120 102 -62 222 -137 268 -167
47 -30 88 -50 95 -46 14 8 314 235 413 313 40 30 153 116 253 190 100 74 181
138 181 142 0 4 -10 14 -22 22 -13 7 -134 84 -269 170 -136 86 -250 156 -255
156 -5 0 -91 -62 -190 -138z"/>
<path d="M5543 4296 c-76 -56 -235 -178 -353 -269 -118 -92 -264 -204 -323
-249 l-108 -83 88 -84 c204 -194 404 -347 685 -523 103 -65 192 -119 197 -121
8 -2 82 56 407 319 94 77 229 186 300 242 235 189 264 213 264 220 0 7 -60 48
-235 160 -174 111 -502 317 -590 370 -44 27 -106 65 -137 85 l-57 37 -138
-104z"/>
<path d="M1735 3931 c-115 -88 -211 -163 -212 -168 -3 -10 13 -21 268 -178
107 -67 212 -133 234 -148 37 -25 39 -25 61 -9 12 9 104 80 205 156 101 76
190 144 197 151 11 10 5 18 -35 42 -26 17 -120 77 -208 133 -204 131 -283 180
-293 180 -4 0 -101 -72 -217 -159z"/>
</g>
</svg>
